<svg width="350" height="400" xmlns="http://www.w3.org/2000/svg">

 <g>
  <title>Layer 1</title>
  <path d="m142,391c0,-1 0,-1 -1,-1c-1,0 -1,-1 -3,-1c-1,0 -3,-2 -6,-3c-3,-1 -6.85272,-1.1731 -8,-2c-1.814,-1.30746 -4,-2 -7,-2c-2,0 -4.93414,-1.14429 -7,-2c-5.84314,-2.42029 -10,-4 -13,-5c-3,-1 -7.74673,0.62866 -12,-2c-1.9021,-1.17557 -3.59399,-3.513 -6,-5c-2.69,-1.66251 -4.88855,-2.19409 -10,-5c-3.92029,-2.15204 -5.88855,-4.19409 -11,-7c-3.92029,-2.15204 -6.56723,-5.28326 -8,-7c-3.20374,-3.83875 -5,-6 -7,-9c-2,-3 -4.3851,-5.37201 -7,-9c-2.48071,-3.4418 -4.513,-5.59399 -6,-8c-1.66251,-2.69 -4.41589,-5.76108 -6,-9c-1.38936,-2.84073 -2,-5 -3,-9c-1,-4 -3.14774,-5.94342 -5,-11c-1.08769,-2.96933 -3.49345,-5.87857 -4,-9c-0.64073,-3.94836 -1.98163,-6.71201 -3,-12c-0.56732,-2.94586 -0.70439,-6.01459 -1,-9c-0.50244,-5.07422 0,-8 0,-14c0,-5 -1,-8 -1,-13c0,-4 1,-7 1,-10c0,-4 -0.48055,-7.03873 0,-10c0.50655,-3.12143 1.08099,-6.10699 2,-10c1.02748,-4.35251 2.49345,-5.87857 3,-9c0.48055,-2.96127 -0.48055,-6.03873 0,-9c0.50655,-3.12143 1,-5 2,-8c1,-3 4,-8 5,-10c1,-2 1.69255,-4.186 3,-6c2.48071,-3.4418 3.5695,-5.133 5,-9c1.55159,-4.19434 3.60703,-9.17572 6,-14c2.59106,-5.22363 5.38904,-9.65593 8,-13c3.58844,-4.59599 5,-8 9,-12c3,-3 4.71411,-4.21167 7,-7c1.79318,-2.18735 5.23743,-4.46109 8,-6c6.82303,-3.80081 8.71899,-8.31021 12,-11c2.78833,-2.28587 5.85077,-3.21005 10,-6c4.83881,-3.2536 10.90656,-7.14388 17,-11c4.92722,-3.1181 9.52173,-6.77623 14,-9c6.52045,-3.23787 11.96329,-4.16042 16,-5c5.95532,-1.23863 12.01364,-1.67007 16,-2c6.06204,-0.50171 13.06744,0.09966 22,-1c8.18442,-1.00755 14.95847,-2.49924 24,-3c8.98624,-0.4977 15.93796,0.49829 22,1c8.96933,0.74232 19.0874,-0.60173 28,1c8.11618,1.4586 15.03406,2.31024 22,3c5.07422,0.50244 8.96683,2.18323 14,3c7.95816,1.29143 12.81146,2.13464 15,5c1.91949,2.51308 3.18604,4.69255 5,6c3.44183,2.48071 5.7464,8.16119 9,13c2.78992,4.14925 5.51929,6.5582 8,10c3.92236,5.44197 5.49622,8.90779 6,13c0.6109,4.96254 1.54865,7.76993 3,12c1.65485,4.82303 1.3891,8.03746 2,13c0.50378,4.09221 0.78735,9.00755 1,12c0.50128,7.05328 1,12 1,18c0,6 0,10 0,14c0,5 1,10 1,14c0,4 -0.1604,7.96329 -1,12c-1.23865,5.95532 -1.49622,9.90778 -2,14c-0.48871,3.97003 0.43048,8.133 -1,12c-1.55157,4.19434 -2.63342,7.02249 -3,10c-0.50378,4.09222 -2,8 -2,15c0,3 -1.49347,5.87857 -2,9c-0.64075,3.94836 -1.14429,6.93414 -2,9c-1.21014,2.92157 -2.73145,6.0769 -4,10c-1.65686,5.12396 -4.85114,7.48532 -7,12c-1.77197,3.7229 -3.66541,6.50626 -5,9c-2.40601,4.49567 -3.41589,6.76108 -5,10c-1.38934,2.84073 -3.51929,5.5582 -6,9c-1.30746,1.814 -5,6 -7,8c-2,2 -2.71411,2.21167 -5,5c-1.79318,2.18735 -2.88153,4.19028 -6,6c-1.93399,1.12234 -2.797,3.2565 -4,4c-2.69,1.66251 -5.37201,3.3851 -9,6c-2.29453,1.65381 -4,3 -7,4c-3,1 -5.93414,3.14429 -8,4c-2.92157,1.21014 -4.38687,2.9176 -7,4c-2.77164,1.14804 -5.15225,0.23462 -7,1c-1.30655,0.5412 -4,1 -7,2c-3,1 -5.04291,0.71021 -6,1c-3.45084,1.04483 -6.133,1.56952 -10,3c-2.09717,0.77579 -4.82376,1.48627 -7,2c-1.9465,0.4595 -3,1 -5,1c-2,0 -5.0535,-0.4595 -7,0c-2.17624,0.51373 -5,1 -8,1c-2,0 -5.0535,0.5405 -7,1c-2.17624,0.51373 -3.82376,1.48627 -6,2c-0.97324,0.22977 -1.69345,0.4588 -3,1c-0.92389,0.38269 -3,0 -5,0c-4,0 -7,0 -8,0c-1,0 -2,1 -4,1c-1,0 -2.07611,-0.38269 -3,0c-1.30655,0.5412 -2,1 -3,1c-1,0 -1.07611,-0.38269 -2,0c-1.30655,0.5412 -1.07611,1.61731 -2,2c-1.30655,0.5412 -2,1 -3,1l-1,0l0,1l-1,0" id="svg_9" stroke="#000" fill="none"/>
  <ellipse ry="11" rx="11" id="svg_13" cy="388" cx="138" fill="#000"/>
  <path d="m135,385c-1,0 -1,0 -2,0c0,0 0,-1 0,-2c0,-1 -1.14935,-0.47427 -2,-1c-1.9021,-1.17557 -2.4588,-1.69345 -3,-3c-0.38269,-0.92389 -1.29291,-0.29291 -2,-1c-0.70709,-0.70709 -0.07611,-1.61731 -1,-2c-2.61313,-1.0824 -3,-2 -4,-3c-1,-1 -1.29291,-2.29291 -2,-3c-0.70709,-0.70709 0.14728,-2.1731 -1,-3c-1.814,-1.30746 -3.95517,-1.54916 -5,-5c-0.57956,-1.91418 -1.41885,-4.41885 -3,-6c-1.58115,-1.58115 -4.23462,-4.15225 -5,-6c-0.5412,-1.30655 -1.08051,-3.48691 -3,-6c-2.18854,-2.86536 -4.9176,-3.38687 -6,-6c-0.38269,-0.92389 -0.53491,-2.31076 -2,-4c-2.07193,-2.38895 -1.78986,-6.07843 -3,-9c-0.85571,-2.06586 -0.51944,-5.03873 -1,-8c-0.50653,-3.12143 -1,-7 -1,-12c0,-2 0,-5 0,-8c0,-2 0,-5 0,-9c0,-3 0,-6 0,-9c0,-4 -0.64072,-8.05164 0,-12c0.50653,-3.12143 0,-6 0,-9c0,-3 0.49347,-5.87857 1,-9c0.32037,-1.97418 0,-5 0,-8c0,-3 0.49622,-5.90778 1,-10c0.36655,-2.97751 0.63345,-6.02249 1,-9c0.50378,-4.09222 1.84723,-7.04132 3,-11c0.88412,-3.03616 1.63345,-7.02249 2,-10c0.50378,-4.09222 3.20682,-7.81265 5,-10c2.28589,-2.78833 3,-6 1,-7c-2,-1 -1.0824,-2.38687 0,-5c0.76538,-1.84775 0.71411,-4.21167 3,-7c2.68979,-3.28101 6.34619,-5.70547 8,-8c1.30746,-1.814 3,-4 6,-7c2,-2 5.186,-4.69254 7,-6c2.29453,-1.65381 4.88153,-4.19028 8,-6c3.86798,-2.24469 5.797,-3.2565 7,-4c2.69,-1.66251 6.19577,-2.64886 10,-5c4.25327,-2.62866 7.04132,-4.84723 11,-6c3.03616,-0.88414 6,-2 10,-3c4,-1 12.03873,-2.51945 15,-3c3.12143,-0.50655 5,-1 8,-1c4,0 9.93796,0.49829 16,1c6.97614,0.57736 12.0535,-0.4595 14,0c2.17624,0.51375 6,3 9,5c3,2 5,5 8,8c3,3 5.71411,6.21167 8,9c0.89661,1.09367 2.9335,4.01721 4,8c1.88312,7.03235 3.78986,11.07843 5,14c1.71143,4.13171 2,6 3,10c1,4 1,7 2,11c1,4 1,7 1,11c0,4 0,7 0,12c0,4 0.64072,6.05164 0,10c-0.50653,3.12143 -0.60583,7.01947 -1,11c-0.50244,5.07422 -2.14774,7.94342 -4,13c-1.08768,2.96933 -0.61066,6.15927 -2,9c-1.58411,3.23892 -1.61066,6.15927 -3,9c-1.58411,3.23892 -2.14429,3.93414 -3,6c-1.21014,2.92157 -1.71411,6.21167 -4,9c-2.68979,3.28101 -5.14682,4.86325 -7,7c-3.276,3.77728 -6.513,6.59399 -8,9c-1.66251,2.69 -2.52017,5.32367 -4,7c-2.38617,2.703 -3.61731,4.07611 -4,5c-1.0824,2.61313 -3,5 -5,7c-2,2 -4.34619,3.70547 -6,6c-1.30746,1.814 -1.71411,4.21167 -4,7c-2.68979,3.28101 -4.78986,6.07843 -6,9c-0.85571,2.06586 -3,3 -5,6c-2,3 -5,5 -6,6c-2,2 -4,3 -5,4c-2,2 -2,3 -5,5c0,0 -0.69345,0.4588 -2,1c-0.92389,0.38269 -2.29291,0.29291 -3,1c-0.70709,0.70709 -1,1 -1,2c0,1 -1,1 -2,2c-1,1 -2,1 -3,2c-1,1 -2.186,1.69254 -4,3c-1.14728,0.8269 -2.07611,1.61731 -3,2c-2.61313,1.0824 -3.07611,2.61731 -4,3c-1.30655,0.5412 -2.07611,1.61731 -3,2c-2.61313,1.0824 -3.4588,1.69345 -4,3c-0.38269,0.92389 -1.69345,2.4588 -3,3c-0.92389,0.38269 -1.29291,0.29291 -2,1c-0.70709,0.70709 -2,1 -3,1c0,0 -0.69345,0.4588 -2,1c-0.92389,0.38269 -1,1 -2,1c-1,0 -1,0 -2,0c0,0 0,0 -1,0c-1,0 -1,0 -2,0c0,0 -1,1 -2,1l0,0l0,1" id="svg_10" stroke="#000" fill="#FFAC8D"/>
  <text font-style="normal" font-weight="normal" style="cursor: move;" xml:space="preserve" text-anchor="start" font-family="Noto Sans JP" font-size="20" id="svg_11" y="209" x="122" fill="#000">overlapping</text>
  <text xml:space="preserve" text-anchor="start" font-family="Noto Sans JP" font-size="20" id="svg_12" y="235" x="144" fill="#000">region</text>
  <ellipse ry="24.5" rx="24.5" id="svg_15" cy="25.5" cx="144.5" fill="#007fff"/>
 </g>
</svg>
