<?xml version="1.0" encoding="UTF-8" standalone="no"?>
<svg
   version="1.1"
   viewBox="0 0 440.40686 310.76376"
   fill="none"
   stroke="none"
   stroke-linecap="square"
   stroke-miterlimit="10"
   id="svg1385"
   sodipodi:docname="positions.svg"
   width="440.40686"
   height="310.76376"
   inkscape:version="1.1.2 (0a00cf5339, 2022-02-04)"
   xmlns:inkscape="http://www.inkscape.org/namespaces/inkscape"
   xmlns:sodipodi="http://sodipodi.sourceforge.net/DTD/sodipodi-0.dtd"
   xmlns="http://www.w3.org/2000/svg"
   xmlns:svg="http://www.w3.org/2000/svg">
  <defs
     id="defs1389" />
  <sodipodi:namedview
     id="namedview1387"
     pagecolor="#ffffff"
     bordercolor="#666666"
     borderopacity="1.0"
     inkscape:pageshadow="2"
     inkscape:pageopacity="0.0"
     inkscape:pagecheckerboard="0"
     showgrid="false"
     lock-margins="true"
     fit-margin-top="10"
     fit-margin-left="10"
     fit-margin-right="10"
     fit-margin-bottom="10"
     inkscape:zoom="1.3462963"
     inkscape:cx="-40.481431"
     inkscape:cy="170.46768"
     inkscape:window-width="3840"
     inkscape:window-height="2080"
     inkscape:window-x="0"
     inkscape:window-y="48"
     inkscape:window-maximized="1"
     inkscape:current-layer="svg1385" />
  <clipPath
     id="g24f4ae99f6c_0_0.0">
    <path
       d="M 0,0 H 960 V 540 H 0 Z"
       clip-rule="nonzero"
       id="path1328" />
  </clipPath>
  <path
     fill="#000000"
     fill-opacity="0"
     d="m 10,258.74802 h 90.4567 v 42.01575 H 10 Z"
     fill-rule="evenodd"
     id="path1333" />
  <path
     fill="#000000"
     d="m 22.81235,289.58991 q -1.42188,-3.125 -1.42188,-6.4375 0,-2.20313 0.57813,-4.09375 0.57812,-1.90625 1.76562,-3.76563 0.78125,-1.23437 2.5,-3.20312 h 1.28125 q -1.0625,1.14062 -2.25,3.20312 -1.1875,2.0625 -1.73437,4.0625 -0.53125,2 -0.53125,4 0,3.01563 1.04687,6.23438 z m 8.36472,-3.92188 4.21875,-4.90625 -2.42188,-4.76562 h 1.82813 l 0.8125,1.71875 q 0.45312,0.96875 0.82812,1.84375 l 2.78125,-3.5625 h 2.01563 l -4.0625,4.89062 2.4375,4.78125 h -1.8125 l -0.96875,-1.96875 q -0.3125,-0.625 -0.70313,-1.5625 l -2.875,3.53125 z"
     fill-rule="nonzero"
     id="path1335" />
  <path
     fill="#000000"
     d="m 43.53644,292.66803 1.40625,-6.71875 q -0.92187,0.71875 -2.5625,1.14062 l 0.20313,-1 q 0.8125,-0.32812 1.60937,-0.84375 0.8125,-0.53125 1.20313,-0.92187 0.25,-0.25 0.46875,-0.59375 h 0.64062 l -1.875,8.9375 z"
     fill-rule="nonzero"
     id="path1337" />
  <path
     fill="#000000"
     d="m 51.92459,285.66803 0.39063,-1.875 h 1.875 l -0.34375,1.64062 q -0.3125,1.46875 -0.96875,2.14063 -0.64063,0.6875 -1.51563,0.79687 l 0.14063,-0.71875 q 1.09375,-0.3125 1.4375,-1.98437 z m 9.35098,3.73437 0.0937,-1.54687 q 0.51563,0.14062 1,0.14062 0.5,0 0.8125,-0.21875 0.40625,-0.3125 0.875,-1.14062 l 0.53125,-0.9375 -1.625,-9.70313 h 1.625 l 0.73438,4.89063 q 0.21875,1.45312 0.375,2.89062 l 4.32812,-7.78125 h 1.71875 l -6.17187,10.95313 q -0.89063,1.60937 -1.59375,2.125 -0.6875,0.51562 -1.57813,0.51562 -0.57812,0 -1.125,-0.1875 z"
     fill-rule="nonzero"
     id="path1339" />
  <path
     fill="#000000"
     d="m 73.6037,292.66803 1.40625,-6.71875 q -0.92188,0.71875 -2.5625,1.14062 l 0.20312,-1 q 0.8125,-0.32812 1.60938,-0.84375 0.8125,-0.53125 1.20312,-0.92187 0.25,-0.25 0.46875,-0.59375 h 0.64063 l -1.875,8.9375 z"
     fill-rule="nonzero"
     id="path1341" />
  <path
     fill="#000000"
     d="m 88.13479,272.08991 q 1.4375,3.125 1.4375,6.42187 0,2.21875 -0.57813,4.125 -0.57812,1.89063 -1.76562,3.75 -0.79688,1.23438 -2.5,3.20313 h -1.29688 q 1.0625,-1.14063 2.25,-3.21875 1.20313,-2.0625 1.73438,-4.04688 0.53125,-2 0.53125,-4.01562 0,-3 -1.04688,-6.21875 z"
     fill-rule="nonzero"
     id="path1343" />
  <path
     fill="#000000"
     fill-opacity="0"
     d="M 45.72442,258.74802 173.97637,204.70078"
     fill-rule="evenodd"
     id="path1345" />
  <path
     stroke="#595959"
     stroke-width="3"
     stroke-linejoin="round"
     stroke-linecap="butt"
     d="M 56.20206,254.33257 163.49875,209.1162"
     fill-rule="evenodd"
     id="path1347" />
  <path
     fill="#595959"
     stroke="#595959"
     stroke-width="3"
     stroke-linecap="butt"
     d="m 47.10669,258.16553 c -1.05844,-2.51163 0.1196,-5.40573 2.63123,-6.46414 2.51162,-1.05844 5.4057,0.1196 6.46414,2.63122 1.05844,2.5116 -0.1196,5.4057 -2.63123,6.46411 -2.51163,1.05845 -5.4057,-0.11959 -6.46414,-2.63119 z"
     fill-rule="nonzero"
     id="path1349" />
  <path
     fill="#595959"
     stroke="#595959"
     stroke-width="3"
     stroke-linecap="butt"
     d="m 172.59412,205.2833 c 1.05841,2.5116 -0.1196,5.4057 -2.63123,6.46414 -2.51162,1.05844 -5.4057,-0.1196 -6.46414,-2.63122 -1.05844,-2.51163 0.1196,-5.4057 2.63123,-6.46415 2.51159,-1.05844 5.4057,0.1196 6.46414,2.63123 z"
     fill-rule="nonzero"
     id="path1351" />
  <path
     fill="#000000"
     fill-opacity="0"
     d="m 119.86352,157.93177 h 90.4567 v 42.01575 h -90.4567 z"
     fill-rule="evenodd"
     id="path1353" />
  <path
     fill="#000000"
     d="m 132.67587,188.77362 q -1.42187,-3.125 -1.42187,-6.4375 0,-2.20313 0.57812,-4.09375 0.57813,-1.90625 1.76563,-3.76563 0.78125,-1.23437 2.5,-3.20312 h 1.28125 q -1.0625,1.14062 -2.25,3.20312 -1.1875,2.0625 -1.73438,4.0625 -0.53125,2 -0.53125,4 0,3.01563 1.04688,6.23438 z m 8.36472,-3.92188 4.21875,-4.90625 -2.42188,-4.76562 h 1.82813 l 0.8125,1.71875 q 0.45312,0.96875 0.82812,1.84375 l 2.78125,-3.5625 h 2.01563 l -4.0625,4.89062 2.4375,4.78125 h -1.8125 l -0.96875,-1.96875 q -0.3125,-0.625 -0.70313,-1.5625 l -2.875,3.53125 z"
     fill-rule="nonzero"
     id="path1355" />
  <path
     fill="#000000"
     d="m 151.13434,191.85175 q 0.17187,-0.79688 0.46875,-1.32813 0.29687,-0.54687 0.79687,-1.03125 0.5,-0.48437 1.92188,-1.60937 0.85937,-0.6875 1.17187,-1.01563 0.45313,-0.46875 0.65625,-0.9375 0.14063,-0.29687 0.14063,-0.67187 0,-0.60938 -0.4375,-1.03125 -0.42188,-0.4375 -1.0625,-0.4375 -0.625,0 -1.09375,0.4375 -0.45313,0.4375 -0.65625,1.39062 l -1.07813,-0.15625 q 0.15625,-1.1875 0.92188,-1.85937 0.76562,-0.6875 1.89062,-0.6875 0.76563,0 1.375,0.3125 0.625,0.3125 0.92188,0.89062 0.3125,0.5625 0.3125,1.17188 0,0.89062 -0.625,1.70312 -0.39063,0.51563 -2.28125,2.01563 -0.8125,0.64062 -1.21875,1.0625 -0.39063,0.40625 -0.59375,0.76562 h 3.98437 l -0.21875,1.01563 z"
     fill-rule="nonzero"
     id="path1357" />
  <path
     fill="#000000"
     d="m 161.78812,184.85175 0.39062,-1.875 h 1.875 l -0.34375,1.64062 q -0.3125,1.46875 -0.96875,2.14063 -0.64062,0.6875 -1.51562,0.79687 l 0.14062,-0.71875 q 1.09375,-0.3125 1.4375,-1.98437 z m 9.35098,3.73437 0.0937,-1.54687 q 0.51563,0.14062 1,0.14062 0.5,0 0.8125,-0.21875 0.40625,-0.3125 0.875,-1.14062 l 0.53125,-0.9375 -1.625,-9.70313 h 1.625 l 0.73438,4.89063 q 0.21875,1.45312 0.375,2.89062 l 4.32812,-7.78125 h 1.71875 l -6.17187,10.95313 q -0.89063,1.60937 -1.59375,2.125 -0.6875,0.51562 -1.57813,0.51562 -0.57812,0 -1.125,-0.1875 z"
     fill-rule="nonzero"
     id="path1359" />
  <path
     fill="#000000"
     d="m 181.2016,191.85175 q 0.17187,-0.79688 0.46875,-1.32813 0.29687,-0.54687 0.79687,-1.03125 0.5,-0.48437 1.92188,-1.60937 0.85937,-0.6875 1.17187,-1.01563 0.45313,-0.46875 0.65625,-0.9375 0.14063,-0.29687 0.14063,-0.67187 0,-0.60938 -0.4375,-1.03125 -0.42188,-0.4375 -1.0625,-0.4375 -0.625,0 -1.09375,0.4375 -0.45313,0.4375 -0.65625,1.39062 l -1.07813,-0.15625 q 0.15625,-1.1875 0.92188,-1.85937 0.76562,-0.6875 1.89062,-0.6875 0.76563,0 1.375,0.3125 0.625,0.3125 0.92188,0.89062 0.3125,0.5625 0.3125,1.17188 0,0.89062 -0.625,1.70312 -0.39063,0.51563 -2.28125,2.01563 -0.8125,0.64062 -1.21875,1.0625 -0.39063,0.40625 -0.59375,0.76562 h 3.98437 l -0.21875,1.01563 z"
     fill-rule="nonzero"
     id="path1361" />
  <path
     fill="#000000"
     d="m 197.99832,171.27362 q 1.4375,3.125 1.4375,6.42187 0,2.21875 -0.57812,4.125 -0.57813,1.89063 -1.76563,3.75 -0.79687,1.23438 -2.5,3.20313 h -1.29687 q 1.0625,-1.14063 2.25,-3.21875 1.20312,-2.0625 1.73437,-4.04688 0.53125,-2 0.53125,-4.01562 0,-3 -1.04687,-6.21875 z"
     fill-rule="nonzero"
     id="path1363" />
  <path
     fill="#000000"
     fill-opacity="0"
     d="m 169.80316,207.06299 c 8.71258,-3.86133 43.46368,-7.32678 52.27557,-23.16797 8.81192,-15.84122 -14.35476,-58.41383 0.59583,-71.87927 14.95056,-13.46545 70.54547,-1 89.1076,-8.91339 18.56214,-7.91339 16.81934,-30.05249 22.26508,-38.56693 5.44574,-8.51443 8.67456,-10.43307 10.40949,-12.51968"
     fill-rule="evenodd"
     id="path1365" />
  <path
     stroke="#595959"
     stroke-width="3"
     stroke-linejoin="round"
     stroke-linecap="butt"
     stroke-dasharray="12, 9"
     d="m 169.80316,207.06299 c 8.71258,-3.86133 43.46371,-7.32678 52.27557,-23.16797 8.81189,-15.84122 -14.35476,-58.41383 0.59583,-71.87927 14.95056,-13.46545 70.54547,-1 89.1076,-8.91339 18.56214,-7.91339 16.81934,-30.05249 22.26508,-38.56693 0.68073,-1.06431 1.32684,-2.02555 1.93964,-2.89694 0.15319,-0.21786 0.30438,-0.43008 0.45343,-0.63691 l 0.39813,-0.54552"
     fill-rule="evenodd"
     id="path1367" />
  <path
     fill="#595959"
     stroke="#595959"
     stroke-width="3"
     stroke-linecap="butt"
     d="m 343.45166,53.12925 c 2.02325,1.82619 2.18298,4.94678 0.35681,6.97002 -1.82623,2.02324 -4.94678,2.18298 -6.97003,0.35679 -2.02325,-1.8262 -2.18298,-4.94677 -0.35681,-6.97001 1.82617,-2.02326 4.94678,-2.183 6.97003,-0.3568 z"
     fill-rule="nonzero"
     id="path1369" />
  <path
     fill="#000000"
     fill-opacity="0"
     d="M 255.76117,10 H 430.40686 V 52.01575 H 255.76117 Z"
     fill-rule="evenodd"
     id="path1371" />
  <path
     fill="#000000"
     d="m 310.66797,40.84187 q -1.42187,-3.125 -1.42187,-6.4375 0,-2.20313 0.57812,-4.09375 0.57813,-1.90626 1.76563,-3.76563 0.78125,-1.23438 2.5,-3.20313 h 1.28125 q -1.0625,1.14063 -2.25,3.20313 -1.1875,2.0625 -1.73438,4.0625 -0.53125,2 -0.53125,4 0,3.01563 1.04688,6.23438 z m 8.36475,-3.92188 4.21875,-4.90625 -2.42188,-4.76563 h 1.82813 l 0.8125,1.71876 q 0.45312,0.96875 0.82812,1.84375 l 2.78125,-3.56251 h 2.01563 l -4.0625,4.89063 2.4375,4.78125 h -1.8125 l -0.96875,-1.96875 q -0.3125,-0.625 -0.70313,-1.5625 l -2.875,3.53125 z"
     fill-rule="nonzero"
     id="path1373" />
  <path
     fill="#000000"
     d="m 328.79832,43.92 1.35938,-6.45313 h 0.98437 l -0.23437,1.125 q 0.65625,-0.65625 1.21875,-0.95312 0.5625,-0.3125 1.15625,-0.3125 0.78125,0 1.21875,0.42187 0.45312,0.42188 0.45312,1.14063 0,0.35937 -0.15625,1.125 l -0.8125,3.90625 h -1.10937 l 0.85937,-4.09375 q 0.125,-0.59375 0.125,-0.875 0,-0.32813 -0.21875,-0.51563 -0.21875,-0.20312 -0.64062,-0.20312 -0.84375,0 -1.5,0.60937 -0.65625,0.60938 -0.96875,2.07813 l -0.625,3 z"
     fill-rule="nonzero"
     id="path1375" />
  <path
     fill="#000000"
     d="m 339.78022,36.92 0.39063,-1.875 h 1.875 l -0.34375,1.64062 q -0.3125,1.46875 -0.96875,2.14063 -0.64063,0.6875 -1.51563,0.79687 l 0.14063,-0.71875 q 1.09375,-0.3125 1.4375,-1.98437 z m 9.35101,3.73437 0.0937,-1.54687 q 0.51563,0.14062 1,0.14062 0.5,0 0.8125,-0.21875 0.40625,-0.3125 0.875,-1.14062 l 0.53125,-0.9375 -1.625,-9.70313 h 1.625 l 0.73438,4.89063 q 0.21875,1.45312 0.375,2.89062 l 4.32812,-7.78125 h 1.71875 l -6.17187,10.95313 q -0.89063,1.60937 -1.59375,2.125 -0.6875,0.51562 -1.57813,0.51562 -0.57812,0 -1.125,-0.1875 z"
     fill-rule="nonzero"
     id="path1377" />
  <path
     fill="#000000"
     d="m 358.86562,43.92 1.35937,-6.45313 h 0.98438 l -0.23438,1.125 q 0.65625,-0.65625 1.21875,-0.95312 0.5625,-0.3125 1.15625,-0.3125 0.78125,0 1.21875,0.42187 0.45313,0.42188 0.45313,1.14063 0,0.35937 -0.15625,1.125 l -0.8125,3.90625 h -1.10938 l 0.85938,-4.09375 q 0.125,-0.59375 0.125,-0.875 0,-0.32813 -0.21875,-0.51563 -0.21875,-0.20312 -0.64063,-0.20312 -0.84375,0 -1.5,0.60937 -0.65625,0.60938 -0.96875,2.07813 l -0.625,3 z"
     fill-rule="nonzero"
     id="path1379" />
  <path
     fill="#000000"
     d="m 375.99048,23.34187 q 1.4375,3.125 1.4375,6.42188 0,2.21875 -0.57813,4.125 -0.57812,1.89063 -1.76562,3.75 -0.79688,1.23438 -2.5,3.20313 h -1.29688 q 1.0625,-1.14063 2.25,-3.21875 1.20313,-2.0625 1.73438,-4.04688 0.53125,-2 0.53125,-4.01562 0,-3.00001 -1.04688,-6.21876 z"
     fill-rule="nonzero"
     id="path1381" />
</svg>
