<svg width="350" height="400" xmlns="http://www.w3.org/2000/svg">
 <g id="Layer_1">
  <title>Layer 1</title>
  <ellipse ry="8.5" rx="8.5" id="svg_2" cy="255.5" cx="41.5" stroke="#000" fill="#7f7f7f"/>
  <path id="svg_3" d="m263.5,102c-15.19337,0 -27.5,-12.30663 -27.5,-27.5c0,-15.19337 12.30663,-27.5 27.5,-27.5c15.19337,0 27.5,12.30663 27.5,27.5c0,15.19337 -12.30663,27.5 -27.5,27.5z" opacity="undefined" stroke="#000" fill="#ff0000"/>
  <path stroke-width="2" d="m44,248c0,0 0,-1 0,-3c0,-1 1,-2 1,-3c0,-1 0,-2 0,-3c0,-1 1,-3 1,-5c0,-2 1,-3 1,-4c0,0 0,-1 1,-1c1,0 3,-1 4,-1c1,0 3.07612,0.38269 4,0c1.30656,-0.5412 3.08025,-0.31075 6,-1c2.17625,-0.51375 3,-1 4,-1c1,0 3,0 5,0c2,0 4,0 6,0c1,0 2.02675,0.22975 3,0c2.17625,-0.51375 4.07612,-0.61731 5,-1c1.30656,-0.5412 2.0535,-0.5405 4,-1c2.17625,-0.51375 3.15224,-1.23463 5,-2c1.30656,-0.5412 1.85273,-1.1731 3,-2c1.814,-1.30745 2.1731,-1.85274 3,-3c1.30745,-1.814 2.48626,-2.82375 3,-5c0.4595,-1.9465 2,-3 3,-5c1,-2 2,-3 2,-5c0,-1 1.48626,-2.82375 2,-5c0.4595,-1.9465 1,-3 1,-4c0,-1 -0.4595,-2.0535 0,-4c0.51374,-2.17625 1,-2 1,-3c0,-1 0,-2 0,-3c0,-1 0.29289,-3.29289 1,-4c0.70711,-0.70711 1.29289,-0.29289 2,-1c0.70711,-0.70711 1.69344,-2.4588 3,-3c1.84776,-0.76537 4,-1 5,-1c2,0 4,0 7,0c3,0 4,0 6,0c1,0 2,0 6,0c2,0 4,0 6,0c2,0 1.797,-1.2565 3,-2c2.68999,-1.66251 4.85274,-1.1731 6,-2c1.814,-1.30745 2.85274,-2.1731 4,-3c1.814,-1.30745 2,-2 2,-3c0,-1 1,-1 2,-2c0,0 -0.70711,-1.29289 0,-2c0.70711,-0.70711 1,-1 1,-2c0,-1 0,-2 0,-3c0,-1 0.29289,-1.29289 1,-2c0.70711,-0.70711 0,-2 0,-3c0,-1 -0.30656,-2.4588 1,-3c0.92387,-0.38269 0.29289,-1.29289 1,-2c0.70711,-0.70711 1,0 1,-1c0,-1 1,-1 1,-2c0,-1 0.29289,-1.29289 1,-2c0.70711,-0.70711 0.29289,-1.29289 1,-2c0.70711,-0.70711 0.29289,-0.29289 1,-1c0.70711,-0.70711 1,-1 1,-1c1,0 2,0 3,0c1,0 1,0 2,0c1,0 2,0 3,0c0,0 1,0 2,0c1,0 2,0 3,0c1,0 2,0 3,0c2,0 3,1 5,1c1,0 4,0 4,0c1,1 2.02675,0.77025 3,1c2.17625,0.51375 3,1 4,1c1,0 2,0 3,0c2,0 3,0 5,1c2,1 4,1 6,1c2,0 3.69344,1.4588 5,2c1.84776,0.76537 3,0 4,0c2,0 3,0 4,0c0,0 1,0 2,0c1,0 2,0 2,0c1,0 2,0 3,0c1,0 2,1 3,1c0,0 1,0 2,0c0,0 1,0 2,0c1,0 1,-1 2,-1c1,0 2,0 2,0c1,0 2,0 3,0c0,0 1,0 1,0c1,0 2,0 2,0c1,-1 2.07611,-0.61731 3,-1c1.30655,-0.5412 2,-1 2,-2l1,0l0,0" id="svg_5" stroke="#333333" fill="none"/>
  <path stroke-dasharray="2,2" id="svg_6" d="m264.00509,139.2412l-1.89704,-64.85976" transform="rotate(1.3717, 263.057, 106.811)" opacity="undefined" stroke="#333333" fill="none"/>
  <text style="cursor: move;" xml:space="preserve" text-anchor="start" font-family="Noto Sans JP" font-size="7" stroke-width="0" id="svg_7" y="142.26384" x="265.75431" stroke-dasharray="2,2" stroke="#333333" fill="#000000">(Xn,Yn)</text>
  <text xml:space="preserve" text-anchor="start" font-family="Noto Sans JP" font-size="40" id="svg_8" y="133.5846" x="238.20716" stroke-dasharray="2,2" stroke-width="0" stroke="#333333" fill="#000000">{</text>
  <text xml:space="preserve" text-anchor="start" font-family="Noto Sans JP" font-size="10" id="svg_9" y="123.77329" x="175.94307" stroke-dasharray="2,2" stroke-width="0" stroke="#333333" fill="#000000">spatial error</text>
 </g>
</svg>
