<?xml version="1.0" encoding="UTF-8" standalone="no"?>
<svg
   version="1.1"
   viewBox="0 0 625.24152 98.713112"
   fill="none"
   stroke="none"
   stroke-linecap="square"
   stroke-miterlimit="10"
   id="svg67"
   sodipodi:docname="times.svg"
   width="625.24152"
   height="98.713112"
   inkscape:version="1.1.2 (0a00cf5339, 2022-02-04)"
   xmlns:inkscape="http://www.inkscape.org/namespaces/inkscape"
   xmlns:sodipodi="http://sodipodi.sourceforge.net/DTD/sodipodi-0.dtd"
   xmlns="http://www.w3.org/2000/svg"
   xmlns:svg="http://www.w3.org/2000/svg">
  <defs
     id="defs71" />
  <sodipodi:namedview
     id="namedview69"
     pagecolor="#ffffff"
     bordercolor="#666666"
     borderopacity="1.0"
     inkscape:pageshadow="2"
     inkscape:pageopacity="0.0"
     inkscape:pagecheckerboard="0"
     showgrid="false"
     lock-margins="true"
     fit-margin-top="10"
     fit-margin-left="10"
     fit-margin-right="10"
     fit-margin-bottom="10"
     inkscape:zoom="1.3462963"
     inkscape:cx="108.81706"
     inkscape:cy="84.305365"
     inkscape:window-width="3840"
     inkscape:window-height="2080"
     inkscape:window-x="0"
     inkscape:window-y="48"
     inkscape:window-maximized="1"
     inkscape:current-layer="g65" />
  <clipPath
     id="p.0">
    <path
       d="M 0,0 H 960 V 540 H 0 Z"
       clip-rule="nonzero"
       id="path2" />
  </clipPath>
  <g
     clip-path="url(#p.0)"
     id="g65"
     transform="translate(-115.05241,-185.97979)">
    <path
       fill="#000000"
       fill-opacity="0"
       d="m 125.05249,203.1076 556.59845,-0.0315"
       fill-rule="evenodd"
       id="path7" />
    <path
       stroke="#595959"
       stroke-width="3"
       stroke-linejoin="round"
       stroke-linecap="butt"
       d="m 125.05249,203.1076 538.59845,-0.0305"
       fill-rule="evenodd"
       id="path9" />
    <path
       fill="#595959"
       stroke="#595959"
       stroke-width="3"
       stroke-linecap="butt"
       d="m 663.6512,208.03233 13.61401,-4.95596 -13.61456,-4.95444 z"
       fill-rule="evenodd"
       id="path11" />
    <path
       fill="#000000"
       fill-opacity="0"
       d="m 562.51447,221.38058 h 167.77948 v 42.01575 H 562.51447 Z"
       fill-rule="evenodd"
       id="path13" />
    <path
       fill="#000000"
       d="m 576.3582,248.30058 v -11.78125 h -4.40625 v -1.57813 h 10.57812 v 1.57813 h -4.40625 v 11.78125 z m 7.09387,-11.46875 v -1.89063 h 1.64063 v 1.89063 z m 0,11.46875 v -9.67188 h 1.64063 v 9.67188 z m 4.14484,0 v -9.67188 h 1.46875 v 1.35938 q 0.45312,-0.71875 1.20312,-1.14063 0.76563,-0.4375 1.71875,-0.4375 1.07813,0 1.76563,0.45313 0.6875,0.4375 0.96875,1.23437 1.15625,-1.6875 2.98437,-1.6875 1.45313,0 2.21875,0.79688 0.78125,0.79687 0.78125,2.45312 v 6.64063 h -1.64062 v -6.09375 q 0,-0.98438 -0.15625,-1.40625 -0.15625,-0.4375 -0.57813,-0.70313 -0.42187,-0.26562 -0.98437,-0.26562 -1.01563,0 -1.6875,0.6875 -0.67188,0.67187 -0.67188,2.15625 v 5.625 h -1.64062 v -6.28125 q 0,-1.09375 -0.40625,-1.64063 -0.40625,-0.54687 -1.3125,-0.54687 -0.6875,0 -1.28125,0.35937 -0.59375,0.35938 -0.85938,1.0625 -0.25,0.70313 -0.25,2.03125 v 5.01563 z m 22.16577,-3.10938 1.6875,0.20313 q -0.40625,1.48437 -1.48438,2.3125 -1.07812,0.8125 -2.76562,0.8125 -2.125,0 -3.375,-1.29688 -1.23438,-1.3125 -1.23438,-3.67187 0,-2.45313 1.25,-3.79688 1.26563,-1.34375 3.26563,-1.34375 1.9375,0 3.15625,1.32813 1.23437,1.3125 1.23437,3.70312 0,0.15625 0,0.4375 h -7.21875 q 0.0937,1.59375 0.90625,2.45313 0.8125,0.84375 2.01563,0.84375 0.90625,0 1.54687,-0.46875 0.64063,-0.48438 1.01563,-1.51563 z m -5.39063,-2.65625 h 5.40625 q -0.10937,-1.21875 -0.625,-1.82812 -0.78125,-0.95313 -2.03125,-0.95313 -1.125,0 -1.90625,0.76563 -0.76562,0.75 -0.84375,2.01562 z m 17.44965,9.6875 q -1.35937,-1.70312 -2.29687,-4 -0.9375,-2.29687 -0.9375,-4.76562 0,-2.15625 0.70312,-4.14063 0.82813,-2.3125 2.53125,-4.59375 h 1.17188 q -1.09375,1.89063 -1.45313,2.70313 -0.54687,1.25 -0.875,2.625 -0.39062,1.70312 -0.39062,3.42187 0,4.375 2.71875,8.75 z m 2.43146,-6.8125 1.625,-0.25 q 0.125,0.96875 0.75,1.5 0.625,0.51563 1.75,0.51563 1.125,0 1.67187,-0.45313 0.54688,-0.46875 0.54688,-1.09375 0,-0.54687 -0.48438,-0.875 -0.32812,-0.21875 -1.67187,-0.54687 -1.8125,-0.46875 -2.51563,-0.79688 -0.6875,-0.32812 -1.04687,-0.90625 -0.35938,-0.59375 -0.35938,-1.3125 0,-0.64062 0.29688,-1.1875 0.29687,-0.5625 0.8125,-0.92187 0.375,-0.28125 1.03125,-0.46875 0.67187,-0.20313 1.42187,-0.20313 1.14063,0 2,0.32813 0.85938,0.32812 1.26563,0.89062 0.42187,0.5625 0.57812,1.5 l -1.60937,0.21875 q -0.10938,-0.75 -0.64063,-1.17187 -0.51562,-0.42188 -1.46875,-0.42188 -1.14062,0 -1.625,0.375 -0.46875,0.375 -0.46875,0.875 0,0.3125 0.1875,0.57813 0.20313,0.26562 0.64063,0.4375 0.23437,0.0937 1.4375,0.42187 1.75,0.45313 2.4375,0.75 0.6875,0.29688 1.07812,0.85938 0.39063,0.5625 0.39063,1.40625 0,0.82812 -0.48438,1.54687 -0.46875,0.71875 -1.375,1.125 -0.90625,0.39063 -2.04687,0.39063 -1.875,0 -2.875,-0.78125 -0.98438,-0.78125 -1.25,-2.32813 z m 16.60937,-0.21875 1.6875,0.20313 q -0.40625,1.48437 -1.48437,2.3125 -1.07813,0.8125 -2.76563,0.8125 -2.125,0 -3.375,-1.29688 -1.23437,-1.3125 -1.23437,-3.67187 0,-2.45313 1.25,-3.79688 1.26562,-1.34375 3.26562,-1.34375 1.9375,0 3.15625,1.32813 1.23438,1.3125 1.23438,3.70312 0,0.15625 0,0.4375 h -7.21875 q 0.0937,1.59375 0.90625,2.45313 0.8125,0.84375 2.01562,0.84375 0.90625,0 1.54688,-0.46875 0.64062,-0.48438 1.01562,-1.51563 z m -5.39062,-2.65625 h 5.40625 q -0.10938,-1.21875 -0.625,-1.82812 -0.78125,-0.95313 -2.03125,-0.95313 -1.125,0 -1.90625,0.76563 -0.76563,0.75 -0.84375,2.01562 z m 15.45379,2.21875 1.60938,0.21875 q -0.26563,1.65625 -1.35938,2.60938 -1.07812,0.9375 -2.67187,0.9375 -1.98438,0 -3.1875,-1.29688 -1.20313,-1.29687 -1.20313,-3.71875 0,-1.57812 0.51563,-2.75 0.51562,-1.17187 1.57812,-1.75 1.0625,-0.59375 2.3125,-0.59375 1.57813,0 2.57813,0.79688 1,0.79687 1.28125,2.26562 l -1.59375,0.23438 q -0.23438,-0.96875 -0.8125,-1.45313 -0.57813,-0.5 -1.39063,-0.5 -1.23437,0 -2.01562,0.89063 -0.78125,0.89062 -0.78125,2.8125 0,1.95312 0.75,2.84375 0.75,0.875 1.95312,0.875 0.96875,0 1.60938,-0.59375 0.65625,-0.59375 0.82812,-1.82813 z m 2.40625,-1.29687 q 0,-2.6875 1.48438,-3.96875 1.25,-1.07813 3.04687,-1.07813 2,0 3.26563,1.3125 1.26562,1.29688 1.26562,3.60938 0,1.85937 -0.5625,2.9375 -0.5625,1.0625 -1.64062,1.65625 -1.0625,0.59375 -2.32813,0.59375 -2.03125,0 -3.28125,-1.29688 -1.25,-1.3125 -1.25,-3.76562 z m 1.6875,0 q 0,1.85937 0.79688,2.79687 0.8125,0.92188 2.04687,0.92188 1.21875,0 2.03125,-0.92188 0.8125,-0.9375 0.8125,-2.84375 0,-1.79687 -0.8125,-2.71875 -0.8125,-0.92187 -2.03125,-0.92187 -1.23437,0 -2.04687,0.92187 -0.79688,0.90625 -0.79688,2.76563 z m 9.29761,4.84375 v -9.67188 h 1.46875 v 1.375 q 1.0625,-1.59375 3.07813,-1.59375 0.875,0 1.60937,0.3125 0.73438,0.3125 1.09375,0.82813 0.375,0.5 0.51563,1.20312 0.0937,0.45313 0.0937,1.59375 v 5.95313 h -1.64063 v -5.89063 q 0,-1 -0.20312,-1.48437 -0.1875,-0.5 -0.67188,-0.79688 -0.48437,-0.29687 -1.14062,-0.29687 -1.04688,0 -1.8125,0.67187 -0.75,0.65625 -0.75,2.51563 v 5.28125 z m 16.64136,0 v -1.21875 q -0.90625,1.4375 -2.70313,1.4375 -1.15625,0 -2.125,-0.64063 -0.96875,-0.64062 -1.5,-1.78125 -0.53125,-1.14062 -0.53125,-2.625 0,-1.45312 0.48438,-2.625 0.48437,-1.1875 1.4375,-1.8125 0.96875,-0.625 2.17187,-0.625 0.875,0 1.54688,0.375 0.6875,0.35938 1.10937,0.95313 v -4.79688 h 1.64063 v 13.35938 z m -5.17188,-4.82813 q 0,1.85938 0.78125,2.78125 0.78125,0.92188 1.84375,0.92188 1.07813,0 1.82813,-0.875 0.75,-0.89063 0.75,-2.6875 0,-1.98438 -0.76563,-2.90625 -0.76562,-0.9375 -1.89062,-0.9375 -1.07813,0 -1.8125,0.89062 -0.73438,0.89063 -0.73438,2.8125 z m 8.62573,1.9375 1.625,-0.25 q 0.125,0.96875 0.75,1.5 0.625,0.51563 1.75,0.51563 1.125,0 1.67188,-0.45313 0.54687,-0.46875 0.54687,-1.09375 0,-0.54687 -0.48437,-0.875 -0.32813,-0.21875 -1.67188,-0.54687 -1.8125,-0.46875 -2.51562,-0.79688 -0.6875,-0.32812 -1.04688,-0.90625 -0.35937,-0.59375 -0.35937,-1.3125 0,-0.64062 0.29687,-1.1875 0.29688,-0.5625 0.8125,-0.92187 0.375,-0.28125 1.03125,-0.46875 0.67188,-0.20313 1.42188,-0.20313 1.14062,0 2,0.32813 0.85937,0.32812 1.26562,0.89062 0.42188,0.5625 0.57813,1.5 l -1.60938,0.21875 q -0.10937,-0.75 -0.64062,-1.17187 -0.51563,-0.42188 -1.46875,-0.42188 -1.14063,0 -1.625,0.375 -0.46875,0.375 -0.46875,0.875 0,0.3125 0.1875,0.57813 0.20312,0.26562 0.64062,0.4375 0.23438,0.0937 1.4375,0.42187 1.75,0.45313 2.4375,0.75 0.6875,0.29688 1.07813,0.85938 0.39062,0.5625 0.39062,1.40625 0,0.82812 -0.48437,1.54687 -0.46875,0.71875 -1.375,1.125 -0.90625,0.39063 -2.04688,0.39063 -1.875,0 -2.875,-0.78125 -0.98437,-0.78125 -1.25,-2.32813 z m 11.0625,6.8125 h -1.1875 q 2.73438,-4.375 2.73438,-8.75 0,-1.71875 -0.39063,-3.39062 -0.3125,-1.375 -0.875,-2.625 -0.35937,-0.82813 -1.46875,-2.73438 h 1.1875 q 1.70313,2.28125 2.53125,4.59375 0.6875,1.98438 0.6875,4.14063 0,2.46875 -0.9375,4.76562 -0.9375,2.29688 -2.28125,4 z"
       fill-rule="nonzero"
       id="path15" />
    <path
       fill="#000000"
       fill-opacity="0"
       d="m 136.14174,232.67717 h 63.27559 v 42.01573 h -63.27559 z"
       fill-rule="evenodd"
       id="path17" />
    <path
       fill="#000000"
       d="m 157.56245,258.25342 -0.26563,1.35937 q -0.59375,0.14063 -1.15625,0.14063 -0.98437,0 -1.5625,-0.46875 -0.4375,-0.375 -0.4375,-1 0,-0.3125 0.23438,-1.46875 l 1.17187,-5.625 h -1.29687 l 0.26562,-1.26563 h 1.29688 l 0.5,-2.375 1.89062,-1.14062 -0.73437,3.51562 h 1.625 l -0.28125,1.26563 h -1.60938 l -1.125,5.35937 q -0.20312,1.01563 -0.20312,1.21875 0,0.28125 0.15625,0.4375 0.17187,0.15625 0.5625,0.15625 0.54687,0 0.96875,-0.10937 z"
       fill-rule="nonzero"
       id="path19" />
    <path
       fill="#000000"
       d="m 158.79263,264.39404 1.09375,-0.0625 q 0,0.46875 0.14062,0.8125 0.15625,0.32813 0.54688,0.54688 0.39062,0.20312 0.92187,0.20312 0.71875,0 1.07813,-0.28125 0.375,-0.29687 0.375,-0.70312 0,-0.28125 -0.21875,-0.53125 -0.21875,-0.26563 -1.09375,-0.625 -0.875,-0.375 -1.125,-0.53125 -0.40625,-0.25 -0.60938,-0.57813 -0.20312,-0.34375 -0.20312,-0.78125 0,-0.76562 0.60937,-1.3125 0.60938,-0.54687 1.70313,-0.54687 1.20312,0 1.84375,0.5625 0.64062,0.5625 0.65625,1.46875 l -1.07813,0.0781 q -0.0156,-0.57812 -0.40625,-0.92187 -0.39062,-0.34375 -1.09375,-0.34375 -0.57812,0 -0.89062,0.26562 -0.3125,0.26563 -0.3125,0.5625 0,0.3125 0.26562,0.53125 0.1875,0.15625 0.9375,0.48438 1.26563,0.54687 1.59375,0.875 0.53125,0.5 0.53125,1.21875 0,0.48437 -0.29687,0.95312 -0.29688,0.45313 -0.90625,0.73438 -0.59375,0.26562 -1.42188,0.26562 -1.10937,0 -1.90625,-0.54687 -0.78125,-0.54688 -0.73437,-1.79688 z m 8.68739,1.3125 -0.1875,0.89063 q -0.39062,0.10937 -0.76562,0.10937 -0.65625,0 -1.04688,-0.32812 -0.28125,-0.23438 -0.28125,-0.65625 0,-0.21875 0.15625,-0.98438 l 0.78125,-3.73437 h -0.875 l 0.1875,-0.85938 h 0.85938 l 0.34375,-1.57812 1.25,-0.76563 -0.48438,2.34375 h 1.07813 l -0.1875,0.85938 h -1.07813 l -0.75,3.5625 q -0.125,0.67187 -0.125,0.8125 0,0.1875 0.10938,0.29687 0.10937,0.10938 0.35937,0.10938 0.375,0 0.65625,-0.0781 z m 5.23673,0.0937 q -0.57813,0.48438 -1.10938,0.71875 -0.51562,0.21875 -1.125,0.21875 -0.89062,0 -1.4375,-0.51562 -0.54687,-0.53125 -0.54687,-1.34375 0,-0.54688 0.23437,-0.95313 0.25,-0.42187 0.65625,-0.67187 0.42188,-0.25 1,-0.35938 0.375,-0.0781 1.40625,-0.125 1.03125,-0.0469 1.48438,-0.21875 0.125,-0.45312 0.125,-0.75 0,-0.375 -0.26563,-0.59375 -0.39062,-0.3125 -1.125,-0.3125 -0.6875,0 -1.14062,0.3125 -0.4375,0.3125 -0.625,0.875 l -1.125,-0.0937 q 0.34375,-0.96875 1.07812,-1.46875 0.75,-0.51562 1.875,-0.51562 1.1875,0 1.89063,0.5625 0.53125,0.4375 0.53125,1.10937 0,0.51563 -0.15625,1.20313 l -0.35938,1.59375 q -0.17187,0.76562 -0.17187,1.25 0,0.29687 0.14062,0.875 h -1.10937 q -0.0937,-0.3125 -0.125,-0.79688 z m 0.40625,-2.46875 q -0.23438,0.0937 -0.5,0.14063 -0.26563,0.0469 -0.875,0.0937 -0.96875,0.0937 -1.35938,0.23437 -0.39062,0.125 -0.59375,0.40625 -0.20312,0.28125 -0.20312,0.625 0,0.46875 0.3125,0.76563 0.32812,0.29687 0.90625,0.29687 0.54687,0 1.04687,-0.28125 0.51563,-0.29687 0.79688,-0.8125 0.29687,-0.51562 0.46875,-1.46875 z m 2.15141,3.26563 1.35938,-6.45313 h 0.96875 l -0.28125,1.32813 q 0.5,-0.75 0.96875,-1.10938 0.48437,-0.35937 0.98437,-0.35937 0.32813,0 0.8125,0.23437 l -0.45312,1.01563 q -0.28125,-0.20313 -0.625,-0.20313 -0.57813,0 -1.1875,0.65625 -0.60938,0.64063 -0.95313,2.29688 l -0.54687,2.59375 z m 6.71983,-0.89063 -0.1875,0.89063 q -0.39062,0.10937 -0.76562,0.10937 -0.65625,0 -1.04688,-0.32812 -0.28125,-0.23438 -0.28125,-0.65625 0,-0.21875 0.15625,-0.98438 l 0.78125,-3.73437 h -0.875 l 0.1875,-0.85938 h 0.85938 l 0.34375,-1.57812 1.25,-0.76563 -0.48438,2.34375 h 1.07813 l -0.1875,0.85938 h -1.07813 l -0.75,3.5625 q -0.125,0.67187 -0.125,0.8125 0,0.1875 0.10938,0.29687 0.10937,0.10938 0.35937,0.10938 0.375,0 0.65625,-0.0781 z"
       fill-rule="nonzero"
       id="path21" />
    <path
       fill="#000000"
       fill-opacity="0"
       d="M 155.90027,236.3517 V 196.57217"
       fill-rule="evenodd"
       id="path23" />
    <path
       stroke="#595959"
       stroke-width="3"
       stroke-linejoin="round"
       stroke-linecap="butt"
       d="M 155.90027,236.3517 V 207.94217"
       fill-rule="evenodd"
       id="path25" />
    <path
       fill="#595959"
       stroke="#595959"
       stroke-width="3"
       stroke-linecap="butt"
       d="m 155.90027,198.07217 c 2.72552,0 4.935,2.20947 4.935,4.935 0,2.72552 -2.20948,4.93501 -4.935,4.93501 -2.72553,0 -4.93501,-2.20949 -4.93501,-4.93501 0,-2.72553 2.20948,-4.935 4.93501,-4.935 z"
       fill-rule="nonzero"
       id="path27" />
    <path
       fill="#000000"
       fill-opacity="0"
       d="m 255.50656,232.67717 h 63.2756 v 42.01573 h -63.2756 z"
       fill-rule="evenodd"
       id="path29" />
    <path
       fill="#000000"
       d="m 269.6641,258.25342 -0.26562,1.35937 q -0.59375,0.14063 -1.15625,0.14063 -0.98438,0 -1.5625,-0.46875 -0.4375,-0.375 -0.4375,-1 0,-0.3125 0.23437,-1.46875 l 1.17188,-5.625 h -1.29688 l 0.26563,-1.26563 h 1.29687 l 0.5,-2.375 1.89063,-1.14062 -0.73438,3.51562 h 1.625 l -0.28125,1.26563 h -1.60937 l -1.125,5.35937 q -0.20313,1.01563 -0.20313,1.21875 0,0.28125 0.15625,0.4375 0.17188,0.15625 0.5625,0.15625 0.54688,0 0.96875,-0.10937 z"
       fill-rule="nonzero"
       id="path31" />
    <path
       fill="#000000"
       d="m 275.14426,265.65967 q -0.95313,1.07812 -1.96875,1.07812 -0.92188,0 -1.53125,-0.67187 -0.60938,-0.67188 -0.60938,-1.96875 0,-1.17188 0.48438,-2.14063 0.48437,-0.98437 1.20312,-1.46875 0.73438,-0.48437 1.45313,-0.48437 1.20312,0 1.82812,1.15625 l 0.71875,-3.46875 h 1.09375 l -1.85937,8.90625 h -1.01563 z m -3.01563,-1.76563 q 0,0.67188 0.125,1.0625 0.14063,0.39063 0.45313,0.65625 0.32812,0.25 0.78125,0.25 0.75,0 1.35937,-0.78125 0.8125,-1.03125 0.8125,-2.54687 0,-0.76563 -0.40625,-1.1875 -0.40625,-0.4375 -1,-0.4375 -0.40625,0 -0.73437,0.17187 -0.3125,0.17188 -0.64063,0.59375 -0.3125,0.42188 -0.53125,1.07813 -0.21875,0.65625 -0.21875,1.14062 z m 7.13581,-4.95312 0.26562,-1.25 h 1.09375 l -0.26562,1.25 z m -1.59375,7.65625 1.34375,-6.45313 h 1.09375 l -1.34375,6.45313 z m 2.90378,-2.20313 1.09375,-0.0625 q 0,0.46875 0.14062,0.8125 0.15625,0.32813 0.54688,0.54688 0.39062,0.20312 0.92187,0.20312 0.71875,0 1.07813,-0.28125 0.375,-0.29687 0.375,-0.70312 0,-0.28125 -0.21875,-0.53125 -0.21875,-0.26563 -1.09375,-0.625 -0.875,-0.375 -1.125,-0.53125 -0.40625,-0.25 -0.60938,-0.57813 -0.20312,-0.34375 -0.20312,-0.78125 0,-0.76562 0.60937,-1.3125 0.60938,-0.54687 1.70313,-0.54687 1.20312,0 1.84375,0.5625 0.64062,0.5625 0.65625,1.46875 l -1.07813,0.0781 q -0.0156,-0.57812 -0.40625,-0.92187 -0.39062,-0.34375 -1.09375,-0.34375 -0.57812,0 -0.89062,0.26562 -0.3125,0.26563 -0.3125,0.5625 0,0.3125 0.26562,0.53125 0.1875,0.15625 0.9375,0.48438 1.26563,0.54687 1.59375,0.875 0.53125,0.5 0.53125,1.21875 0,0.48437 -0.29687,0.95312 -0.29688,0.45313 -0.90625,0.73438 -0.59375,0.26562 -1.42188,0.26562 -1.10937,0 -1.90625,-0.54687 -0.78125,-0.54688 -0.73437,-1.79688 z m 5.57803,4.67188 1.85937,-8.92188 h 1.01563 l -0.1875,0.90625 q 0.5625,-0.59375 1,-0.8125 0.45312,-0.23437 0.95312,-0.23437 0.92188,0 1.53125,0.67187 0.60938,0.67188 0.60938,1.92188 0,1 -0.34375,1.82812 -0.32813,0.82813 -0.8125,1.34375 -0.48438,0.5 -0.98438,0.73438 -0.5,0.23437 -1.01562,0.23437 -1.15625,0 -1.79688,-1.17187 l -0.73437,3.5 z m 2.17187,-5.10938 q 0,0.73438 0.10938,1 0.14062,0.40625 0.48437,0.65625 0.35938,0.23438 0.8125,0.23438 0.9375,0 1.51563,-1.0625 0.59375,-1.07813 0.59375,-2.1875 0,-0.8125 -0.39063,-1.25 -0.39062,-0.45313 -0.96875,-0.45313 -0.42187,0 -0.78125,0.21875 -0.35937,0.21875 -0.67187,0.65625 -0.29688,0.4375 -0.5,1.07813 -0.20313,0.64062 -0.20313,1.10937 z m 5.19828,2.64063 1.85937,-8.90625 h 1.09375 l -1.85937,8.90625 z m 7.20068,-0.79688 q -0.57812,0.48438 -1.10937,0.71875 -0.51563,0.21875 -1.125,0.21875 -0.89063,0 -1.4375,-0.51562 -0.54688,-0.53125 -0.54688,-1.34375 0,-0.54688 0.23438,-0.95313 0.25,-0.42187 0.65625,-0.67187 0.42187,-0.25 1,-0.35938 0.375,-0.0781 1.40625,-0.125 1.03125,-0.0469 1.48437,-0.21875 0.125,-0.45312 0.125,-0.75 0,-0.375 -0.26562,-0.59375 -0.39063,-0.3125 -1.125,-0.3125 -0.6875,0 -1.14063,0.3125 -0.4375,0.3125 -0.625,0.875 l -1.125,-0.0937 q 0.34375,-0.96875 1.07813,-1.46875 0.75,-0.51562 1.875,-0.51562 1.1875,0 1.89062,0.5625 0.53125,0.4375 0.53125,1.10937 0,0.51563 -0.15625,1.20313 l -0.35937,1.59375 q -0.17188,0.76562 -0.17188,1.25 0,0.29687 0.14063,0.875 h -1.10938 q -0.0937,-0.3125 -0.125,-0.79688 z m 0.40625,-2.46875 q -0.23437,0.0937 -0.5,0.14063 -0.26562,0.0469 -0.875,0.0937 -0.96875,0.0937 -1.35937,0.23437 -0.39063,0.125 -0.59375,0.40625 -0.20313,0.28125 -0.20313,0.625 0,0.46875 0.3125,0.76563 0.32813,0.29687 0.90625,0.29687 0.54688,0 1.04688,-0.28125 0.51562,-0.29687 0.79687,-0.8125 0.29688,-0.51562 0.46875,-1.46875 z m 1.74515,5.75 0.0625,-1.03125 q 0.34375,0.10938 0.67187,0.10938 0.32813,0 0.53125,-0.15625 0.26563,-0.20313 0.59375,-0.75 l 0.34375,-0.64063 -1.07812,-6.46875 h 1.07812 l 0.5,3.26563 q 0.14063,0.96875 0.25,1.9375 l 2.875,-5.20313 h 1.15625 l -4.125,7.3125 q -0.59375,1.0625 -1.0625,1.40625 -0.45312,0.35938 -1.04687,0.35938 -0.39063,0 -0.75,-0.14063 z"
       fill-rule="nonzero"
       id="path33" />
    <path
       fill="#000000"
       fill-opacity="0"
       d="m 349.3281,232.67717 h 63.27557 V 274.6929 H 349.3281 Z"
       fill-rule="evenodd"
       id="path35" />
    <path
       fill="#000000"
       d="m 367.63644,258.25342 -0.26563,1.35937 q -0.59375,0.14063 -1.15625,0.14063 -0.98437,0 -1.5625,-0.46875 -0.4375,-0.375 -0.4375,-1 0,-0.3125 0.23438,-1.46875 l 1.17187,-5.625 h -1.29687 l 0.26562,-1.26563 h 1.29688 l 0.5,-2.375 1.89062,-1.14062 -0.73437,3.51562 h 1.625 l -0.28125,1.26563 h -1.60938 l -1.125,5.35937 q -0.20312,1.01563 -0.20312,1.21875 0,0.28125 0.15625,0.4375 0.17187,0.15625 0.5625,0.15625 0.54687,0 0.96875,-0.10937 z"
       fill-rule="nonzero"
       id="path37" />
    <path
       fill="#000000"
       d="m 368.75723,266.59717 1.34375,-6.45313 h 1.10937 l -0.23437,1.0625 q 0.625,-0.6875 1.09375,-0.9375 0.48437,-0.26562 1.04687,-0.26562 0.60938,0 1.01563,0.32812 0.40625,0.3125 0.53125,0.875 0.48437,-0.60937 1.03125,-0.90625 0.54687,-0.29687 1.14062,-0.29687 0.8125,0 1.21875,0.39062 0.40625,0.375 0.40625,1.0625 0,0.29688 -0.14062,0.98438 l -0.875,4.15625 h -1.09375 l 0.89062,-4.26563 q 0.10938,-0.51562 0.10938,-0.75 0,-0.3125 -0.20313,-0.48437 -0.20312,-0.1875 -0.5625,-0.1875 -0.48437,0 -1,0.29687 -0.51562,0.29688 -0.79687,0.78125 -0.28125,0.48438 -0.48438,1.48438 l -0.65625,3.125 h -1.10937 l 0.90625,-4.35938 q 0.10937,-0.4375 0.10937,-0.625 0,-0.3125 -0.20312,-0.5 -0.20313,-0.20312 -0.51563,-0.20312 -0.46875,0 -0.98437,0.29687 -0.5,0.29688 -0.82813,0.82813 -0.32812,0.53125 -0.53125,1.51562 l -0.64062,3.04688 z m 10.56351,-2.45313 q 0,-1.89062 1.10937,-3.125 0.92188,-1.01562 2.40625,-1.01562 1.17188,0 1.875,0.73437 0.71875,0.71875 0.71875,1.95313 0,1.125 -0.45312,2.07812 -0.45313,0.95313 -1.28125,1.46875 -0.82813,0.5 -1.73438,0.5 -0.76562,0 -1.39062,-0.3125 -0.60938,-0.32812 -0.9375,-0.90625 -0.3125,-0.59375 -0.3125,-1.375 z m 1.09375,-0.10937 q 0,0.92187 0.4375,1.39062 0.4375,0.46875 1.10937,0.46875 0.35938,0 0.70313,-0.14062 0.34375,-0.14063 0.64062,-0.4375 0.29688,-0.29688 0.5,-0.65625 0.21875,-0.375 0.34375,-0.8125 0.1875,-0.60938 0.1875,-1.15625 0,-0.875 -0.4375,-1.35938 -0.4375,-0.48437 -1.10937,-0.48437 -0.51563,0 -0.9375,0.25 -0.42188,0.25 -0.76563,0.71875 -0.34375,0.46875 -0.51562,1.10937 -0.15625,0.625 -0.15625,1.10938 z m 7.26077,2.5625 -1.0625,-6.45313 h 1.0625 l 0.5625,3.5625 q 0.0937,0.57813 0.21875,1.89063 0.3125,-0.6875 0.8125,-1.5625 l 2.15625,-3.89063 h 1.15625 l -3.6875,6.45313 z m 9.32803,-2.1875 1.0625,0.10937 q -0.23437,0.79688 -1.0625,1.51563 -0.82812,0.70312 -1.96875,0.70312 -0.71875,0 -1.32812,-0.32812 -0.59375,-0.32813 -0.90625,-0.95313 -0.3125,-0.64062 -0.3125,-1.45312 0,-1.04688 0.48437,-2.03125 0.5,-1 1.26563,-1.48438 0.78125,-0.48437 1.6875,-0.48437 1.15625,0 1.84375,0.71875 0.6875,0.71875 0.6875,1.95312 0,0.46875 -0.0781,0.96875 h -4.75 q -0.0312,0.1875 -0.0312,0.34375 0,0.90625 0.42188,1.39063 0.42187,0.46875 1.01562,0.46875 0.5625,0 1.10938,-0.375 0.54687,-0.375 0.85937,-1.0625 z m -3.20312,-1.60938 h 3.625 q 0,-0.15625 0,-0.23437 0,-0.82813 -0.42188,-1.26563 -0.40625,-0.4375 -1.04687,-0.4375 -0.70313,0 -1.29688,0.48438 -0.57812,0.48437 -0.85937,1.45312 z"
       fill-rule="nonzero"
       id="path39" />
    <path
       fill="#000000"
       fill-opacity="0"
       d="M 267.5433,236.3517 V 196.57217"
       fill-rule="evenodd"
       id="path41" />
    <path
       stroke="#595959"
       stroke-width="3"
       stroke-linejoin="round"
       stroke-linecap="butt"
       d="M 267.5433,236.3517 V 207.94217"
       fill-rule="evenodd"
       id="path43" />
    <path
       fill="#595959"
       stroke="#595959"
       stroke-width="3"
       stroke-linecap="butt"
       d="m 267.5433,198.07217 c 2.72552,0 4.935,2.20947 4.935,4.935 0,2.72552 -2.20948,4.93501 -4.935,4.93501 -2.72553,0 -4.935,-2.20949 -4.935,-4.93501 0,-2.72553 2.20948,-4.935 4.935,-4.935 z"
       fill-rule="nonzero"
       id="path45" />
    <path
       fill="#000000"
       fill-opacity="0"
       d="M 368.61154,236.3517 V 196.57217"
       fill-rule="evenodd"
       id="path47" />
    <path
       stroke="#595959"
       stroke-width="3"
       stroke-linejoin="round"
       stroke-linecap="butt"
       d="M 368.61154,236.3517 V 207.94217"
       fill-rule="evenodd"
       id="path49" />
    <path
       fill="#595959"
       stroke="#595959"
       stroke-width="3"
       stroke-linecap="butt"
       d="m 368.61154,198.07217 c 2.72552,0 4.935,2.20947 4.935,4.935 0,2.72552 -2.20948,4.93501 -4.935,4.93501 -2.72553,0 -4.935,-2.20949 -4.935,-4.93501 0,-2.72553 2.20948,-4.935 4.935,-4.935 z"
       fill-rule="nonzero"
       id="path51" />
    <path
       fill="#000000"
       fill-opacity="0"
       d="m 462.15747,232.67717 h 63.27557 v 42.01573 h -63.27557 z"
       fill-rule="evenodd"
       id="path53" />
    <path
       fill="#000000"
       d="m 484.26443,258.25342 -0.26563,1.35937 q -0.59375,0.14063 -1.15625,0.14063 -0.98437,0 -1.5625,-0.46875 -0.4375,-0.375 -0.4375,-1 0,-0.3125 0.23438,-1.46875 l 1.17187,-5.625 h -1.29687 l 0.26562,-1.26563 h 1.29688 l 0.5,-2.375 1.89062,-1.14062 -0.73437,3.51562 h 1.625 l -0.28125,1.26563 h -1.60938 l -1.125,5.35937 q -0.20312,1.01563 -0.20312,1.21875 0,0.28125 0.15625,0.4375 0.17187,0.15625 0.5625,0.15625 0.54687,0 0.96875,-0.10937 z"
       fill-rule="nonzero"
       id="path55" />
    <path
       fill="#000000"
       d="m 485.54147,266.59717 1.17187,-5.59375 h -0.98437 l 0.17187,-0.85938 h 0.98438 l 0.1875,-0.90625 q 0.15625,-0.6875 0.3125,-0.98437 0.15625,-0.3125 0.5,-0.51563 0.34375,-0.20312 0.95312,-0.20312 0.42188,0 1.21875,0.1875 l -0.20312,0.95312 q -0.5625,-0.14062 -0.9375,-0.14062 -0.32813,0 -0.5,0.15625 -0.15625,0.15625 -0.28125,0.76562 l -0.14063,0.6875 h 1.21875 l -0.17187,0.85938 h -1.21875 l -1.1875,5.59375 z m 4.86172,-7.65625 0.26563,-1.25 h 1.09375 l -0.26563,1.25 z m -1.59375,7.65625 1.34375,-6.45313 h 1.09375 l -1.34375,6.45313 z m 2.79444,0 1.35937,-6.45313 h 0.98438 l -0.23438,1.125 q 0.65625,-0.65625 1.21875,-0.95312 0.5625,-0.3125 1.15625,-0.3125 0.78125,0 1.21875,0.42187 0.45313,0.42188 0.45313,1.14063 0,0.35937 -0.15625,1.125 l -0.8125,3.90625 H 495.682 l 0.85938,-4.09375 q 0.125,-0.59375 0.125,-0.875 0,-0.32813 -0.21875,-0.51563 -0.21875,-0.20312 -0.64063,-0.20312 -0.84375,0 -1.5,0.60937 -0.65625,0.60938 -0.96875,2.07813 l -0.625,3 z m 11.2764,-0.79688 q -0.57813,0.48438 -1.10938,0.71875 -0.51562,0.21875 -1.125,0.21875 -0.89062,0 -1.4375,-0.51562 -0.54687,-0.53125 -0.54687,-1.34375 0,-0.54688 0.23437,-0.95313 0.25,-0.42187 0.65625,-0.67187 0.42188,-0.25 1,-0.35938 0.375,-0.0781 1.40625,-0.125 1.03125,-0.0469 1.48438,-0.21875 0.125,-0.45312 0.125,-0.75 0,-0.375 -0.26563,-0.59375 -0.39062,-0.3125 -1.125,-0.3125 -0.6875,0 -1.14062,0.3125 -0.4375,0.3125 -0.625,0.875 l -1.125,-0.0937 q 0.34375,-0.96875 1.07812,-1.46875 0.75,-0.51562 1.875,-0.51562 1.1875,0 1.89063,0.5625 0.53125,0.4375 0.53125,1.10937 0,0.51563 -0.15625,1.20313 l -0.35938,1.59375 q -0.17187,0.76562 -0.17187,1.25 0,0.29687 0.14062,0.875 h -1.10937 q -0.0937,-0.3125 -0.125,-0.79688 z m 0.40625,-2.46875 q -0.23438,0.0937 -0.5,0.14063 -0.26563,0.0469 -0.875,0.0937 -0.96875,0.0937 -1.35938,0.23437 -0.39062,0.125 -0.59375,0.40625 -0.20312,0.28125 -0.20312,0.625 0,0.46875 0.3125,0.76563 0.32812,0.29687 0.90625,0.29687 0.54687,0 1.04687,-0.28125 0.51563,-0.29687 0.79688,-0.8125 0.29687,-0.51562 0.46875,-1.46875 z m 2.0733,3.26563 1.85937,-8.90625 h 1.09375 l -1.85937,8.90625 z"
       fill-rule="nonzero"
       id="path57" />
    <path
       fill="#000000"
       fill-opacity="0"
       d="M 481.44095,236.3517 V 196.57217"
       fill-rule="evenodd"
       id="path59" />
    <path
       stroke="#595959"
       stroke-width="3"
       stroke-linejoin="round"
       stroke-linecap="butt"
       d="M 481.44095,236.3517 V 207.94217"
       fill-rule="evenodd"
       id="path61" />
    <path
       fill="#595959"
       stroke="#595959"
       stroke-width="3"
       stroke-linecap="butt"
       d="m 481.44095,198.07217 c 2.72552,0 4.935,2.20947 4.935,4.935 0,2.72552 -2.20948,4.93501 -4.935,4.93501 -2.72553,0 -4.935,-2.20949 -4.935,-4.93501 0,-2.72553 2.20948,-4.935 4.935,-4.935 z"
       fill-rule="nonzero"
       id="path63" />
  </g>
</svg>
